# xmcd CD database file
#
# Track frame offsets:
#	180
#	19609
#	38231
#	59924
#	78493
#	101471
#	125963
#	150413
#
# Disc length: 2298 seconds
#
# Revision: 0
# Processed by: cddbd v1.5.2PL0 Copyright (c) Steve Scherf et al.
# Submitted via: CDex 1.70beta2
#
DISCID=6508f808
DTITLE=Cool John Ferguson - Guitar Heaven
DYEAR=2003
DGENRE=Blues
TTITLE0=Low Country Blues
TTITLE1=Song For Brenda
TTITLE2=Chunk of Funk
TTITLE3=Straight Church
TTITLE4=I's True
TTITLE5=Having Fun
TTITLE6=Keep it Confidential
TTITLE7=16 Years
EXTD=YEAR: 2003
EXTT0=
EXTT1=
EXTT2=
EXTT3=
EXTT4=
EXTT5=
EXTT6=
EXTT7=
PLAYORDER=
